<?xml version="1.0" encoding="utf-8"?>
<!-- Generator: Adobe Illustrator 16.0.0, SVG Export Plug-In . SVG Version: 6.00 Build 0)  -->
<!DOCTYPE svg PUBLIC "-//W3C//DTD SVG 1.1//EN" "http://www.w3.org/Graphics/SVG/1.1/DTD/svg11.dtd">
<svg version="1.1" id="Layer_1" xmlns="http://www.w3.org/2000/svg" xmlns:xlink="http://www.w3.org/1999/xlink" x="0px" y="0px"
	 width="2004px" height="850.39px" viewBox="0 0 2004 850.39" enable-background="new 0 0 2004 850.39" xml:space="preserve">
<g>
	<rect x="88.745" y="108.309" width="1804.702" height="565.77"/>
	<g>
		<path fill="#FFFFFF" d="M214.179,341.59c5.589-15.946,13.622-29.862,24.1-41.736c10.478-11.875,23.339-21.185,38.592-27.94
			c15.248-6.751,32.421-10.129,51.516-10.129c19.324,0,36.553,3.378,51.69,10.129c15.132,6.756,27.94,16.065,38.418,27.94
			c10.478,11.875,18.511,25.791,24.099,41.736c5.588,15.951,8.382,33.239,8.382,51.866c0,18.161-2.794,35.1-8.382,50.816
			c-5.588,15.716-13.622,29.397-24.099,41.037c-10.478,11.646-23.286,20.782-38.418,27.417c-15.138,6.636-32.366,9.954-51.69,9.954
			c-19.094,0-36.268-3.318-51.516-9.954c-15.253-6.635-28.115-15.771-38.592-27.417c-10.478-11.64-18.511-25.321-24.1-41.037
			c-5.587-15.717-8.382-32.655-8.382-50.816C205.797,374.83,208.591,357.542,214.179,341.59z M264.298,424.016
			c2.444,9.898,6.341,18.805,11.7,26.718c5.354,7.918,12.339,14.266,20.956,19.034c8.612,4.775,19.09,7.16,31.433,7.16
			c12.339,0,22.817-2.385,31.433-7.16c8.612-4.769,15.597-11.116,20.956-19.034c5.354-7.913,9.256-16.819,11.701-26.718
			c2.444-9.895,3.667-20.082,3.667-30.56c0-10.942-1.223-21.535-3.667-31.783c-2.445-10.243-6.347-19.384-11.701-27.417
			c-5.358-8.032-12.343-14.434-20.956-19.209c-8.616-4.769-19.094-7.159-31.433-7.159c-12.343,0-22.821,2.39-31.433,7.159
			c-8.617,4.775-15.602,11.177-20.956,19.209c-5.358,8.033-9.255,17.174-11.7,27.417c-2.445,10.248-3.667,20.841-3.667,31.783
			C260.63,403.934,261.853,414.121,264.298,424.016z"/>
		<path fill="#FFFFFF" d="M663.675,267.723v46.102H543.181v57.628h104.429v42.609H543.181v103.031h-54.834v-249.37H663.675z"/>
		<path fill="#FFFFFF" d="M870.782,267.723v46.102H750.287v57.628h104.427v42.609H750.287v103.031h-54.834v-249.37H870.782z"/>
		<path fill="#FFFFFF" d="M957.391,267.723v249.37h-54.834v-249.37H957.391z"/>
		<path fill="#FFFFFF" d="M1165.551,334.255c-3.265-5.239-7.337-9.833-12.225-13.795c-4.891-3.957-10.423-7.04-16.59-9.255
			c-6.173-2.21-12.633-3.318-19.386-3.318c-12.344,0-22.821,2.39-31.434,7.159c-8.615,4.775-15.601,11.177-20.956,19.209
			c-5.357,8.033-9.253,17.174-11.698,27.417c-2.445,10.248-3.667,20.841-3.667,31.783c0,10.478,1.222,20.665,3.667,30.56
			c2.445,9.898,6.341,18.805,11.698,26.718c5.355,7.918,12.341,14.266,20.956,19.034c8.612,4.775,19.09,7.16,31.434,7.16
			c16.767,0,29.864-5.118,39.291-15.367c9.431-10.243,15.195-23.749,17.289-40.514h53.088c-1.398,15.603-5.011,29.687-10.825,42.261
			c-5.826,12.572-13.507,23.284-23.054,32.131c-9.55,8.852-20.727,15.602-33.527,20.258c-12.807,4.654-26.894,6.984-42.262,6.984
			c-19.094,0-36.267-3.318-51.516-9.954c-15.253-6.635-28.115-15.771-38.593-27.417c-10.478-11.64-18.51-25.321-24.097-41.037
			c-5.59-15.717-8.384-32.655-8.384-50.816c0-18.626,2.794-35.915,8.384-51.866c5.587-15.946,13.619-29.862,24.097-41.736
			c10.478-11.875,23.34-21.185,38.593-27.94c15.249-6.751,32.422-10.129,51.516-10.129c13.738,0,26.72,1.981,38.943,5.938
			c12.224,3.961,23.166,9.724,32.832,17.288c9.659,7.569,17.637,16.938,23.923,28.115c6.285,11.176,10.242,23.984,11.876,38.418
			h-53.088C1170.902,345.258,1168.808,339.495,1165.551,334.255z"/>
		<path fill="#FFFFFF" d="M1319.221,267.723v249.37h-54.834v-249.37H1319.221z"/>
		<path fill="#FFFFFF" d="M1491.756,267.723l93.253,249.37h-56.932l-18.858-55.532h-93.253l-19.557,55.532h-55.186l94.3-249.37
			H1491.756z M1494.897,420.697l-31.434-91.506h-0.695l-32.484,91.506H1494.897z"/>
		<path fill="#FFFFFF" d="M1661.494,267.723v203.269h121.541v46.102H1606.66v-249.37H1661.494z"/>
	</g>
</g>
</svg>
